<mxfile host="app.diagrams.net" modified="2024-06-28T14:44:47.527Z" agent="Mozilla/5.0 (Windows NT 10.0; Win64; x64; rv:127.0) Gecko/20100101 Firefox/127.0" etag="MLfMmqruVGBWWpU4n60l" version="24.6.2" type="device">
  <diagram name="PÃ¡gina-1" id="pvXpYPfSI5AuPirqwThq">
    <mxGraphModel dx="1434" dy="774" grid="1" gridSize="10" guides="1" tooltips="1" connect="1" arrows="1" fold="1" page="1" pageScale="1" pageWidth="827" pageHeight="1169" math="0" shadow="0">
      <root>
        <mxCell id="0" />
        <mxCell id="1" parent="0" />
        <mxCell id="5Q0gCVu_fDA_tbG_rfQ1-1" value="Instituicao" style="shape=umlActor;html=1;verticalLabelPosition=bottom;verticalAlign=top;align=center;" parent="1" vertex="1">
          <mxGeometry x="390" y="510" width="30" height="60" as="geometry" />
        </mxCell>
        <mxCell id="5Q0gCVu_fDA_tbG_rfQ1-2" value="Voluntario" style="shape=umlActor;html=1;verticalLabelPosition=bottom;verticalAlign=top;align=center;" parent="1" vertex="1">
          <mxGeometry x="399" y="170" width="30" height="60" as="geometry" />
        </mxCell>
        <mxCell id="5Q0gCVu_fDA_tbG_rfQ1-4" value="Cadastrar Conta" style="ellipse;whiteSpace=wrap;html=1;" parent="1" vertex="1">
          <mxGeometry x="433" y="330" width="140" height="70" as="geometry" />
        </mxCell>
        <mxCell id="5Q0gCVu_fDA_tbG_rfQ1-5" value="Editar Informacoes Fornecidas" style="ellipse;whiteSpace=wrap;html=1;" parent="1" vertex="1">
          <mxGeometry x="263" y="330" width="140" height="70" as="geometry" />
        </mxCell>
        <mxCell id="5Q0gCVu_fDA_tbG_rfQ1-6" value="Realizar Comentarios" style="ellipse;whiteSpace=wrap;html=1;" parent="1" vertex="1">
          <mxGeometry x="80" y="330" width="140" height="70" as="geometry" />
        </mxCell>
        <mxCell id="5Q0gCVu_fDA_tbG_rfQ1-7" value="Gerenciar Colaboradores" style="ellipse;whiteSpace=wrap;html=1;" parent="1" vertex="1">
          <mxGeometry x="344" y="660" width="140" height="70" as="geometry" />
        </mxCell>
        <mxCell id="5Q0gCVu_fDA_tbG_rfQ1-8" value="Gerenciar Evento" style="ellipse;whiteSpace=wrap;html=1;" parent="1" vertex="1">
          <mxGeometry x="520" y="660" width="140" height="70" as="geometry" />
        </mxCell>
        <mxCell id="5Q0gCVu_fDA_tbG_rfQ1-9" value="Gerenciar Voluntariado" style="ellipse;whiteSpace=wrap;html=1;" parent="1" vertex="1">
          <mxGeometry x="170" y="660" width="140" height="70" as="geometry" />
        </mxCell>
        <mxCell id="5Q0gCVu_fDA_tbG_rfQ1-12" value="Vincular Colaborador a Instituicao" style="ellipse;whiteSpace=wrap;html=1;" parent="1" vertex="1">
          <mxGeometry x="100" y="20" width="140" height="70" as="geometry" />
        </mxCell>
        <mxCell id="5Q0gCVu_fDA_tbG_rfQ1-13" value="Pesquisar por Eventos" style="ellipse;whiteSpace=wrap;html=1;" parent="1" vertex="1">
          <mxGeometry x="630" y="30" width="140" height="70" as="geometry" />
        </mxCell>
        <mxCell id="5Q0gCVu_fDA_tbG_rfQ1-17" value="Cadastrar Redes Sociais" style="ellipse;whiteSpace=wrap;html=1;" parent="1" vertex="1">
          <mxGeometry x="599" y="330" width="140" height="70" as="geometry" />
        </mxCell>
        <mxCell id="5Q0gCVu_fDA_tbG_rfQ1-22" value="" style="edgeStyle=none;html=1;endArrow=none;verticalAlign=bottom;rounded=0;entryX=0.5;entryY=0.5;entryDx=0;entryDy=0;entryPerimeter=0;" parent="1" source="5Q0gCVu_fDA_tbG_rfQ1-12" target="5Q0gCVu_fDA_tbG_rfQ1-2" edge="1">
          <mxGeometry width="160" relative="1" as="geometry">
            <mxPoint x="171.5" y="-15" as="sourcePoint" />
            <mxPoint x="331.5" y="-15" as="targetPoint" />
          </mxGeometry>
        </mxCell>
        <mxCell id="5Q0gCVu_fDA_tbG_rfQ1-23" value="" style="edgeStyle=none;html=1;endArrow=none;verticalAlign=bottom;rounded=0;exitX=0.478;exitY=0.685;exitDx=0;exitDy=0;exitPerimeter=0;entryX=0.271;entryY=0.143;entryDx=0;entryDy=0;entryPerimeter=0;" parent="1" source="5Q0gCVu_fDA_tbG_rfQ1-1" target="5Q0gCVu_fDA_tbG_rfQ1-8" edge="1">
          <mxGeometry width="160" relative="1" as="geometry">
            <mxPoint x="290" y="570" as="sourcePoint" />
            <mxPoint x="540" y="660" as="targetPoint" />
          </mxGeometry>
        </mxCell>
        <mxCell id="5Q0gCVu_fDA_tbG_rfQ1-24" value="" style="edgeStyle=none;html=1;endArrow=none;verticalAlign=bottom;rounded=0;exitX=0.557;exitY=0.744;exitDx=0;exitDy=0;exitPerimeter=0;entryX=0.5;entryY=0;entryDx=0;entryDy=0;" parent="1" source="5Q0gCVu_fDA_tbG_rfQ1-1" target="5Q0gCVu_fDA_tbG_rfQ1-7" edge="1">
          <mxGeometry width="160" relative="1" as="geometry">
            <mxPoint x="290" y="570" as="sourcePoint" />
            <mxPoint x="450" y="570" as="targetPoint" />
          </mxGeometry>
        </mxCell>
        <mxCell id="5Q0gCVu_fDA_tbG_rfQ1-25" value="" style="edgeStyle=none;html=1;endArrow=none;verticalAlign=bottom;rounded=0;exitX=0.439;exitY=0.705;exitDx=0;exitDy=0;exitPerimeter=0;entryX=0.61;entryY=0.026;entryDx=0;entryDy=0;entryPerimeter=0;" parent="1" source="5Q0gCVu_fDA_tbG_rfQ1-1" target="5Q0gCVu_fDA_tbG_rfQ1-9" edge="1">
          <mxGeometry width="160" relative="1" as="geometry">
            <mxPoint x="290" y="570" as="sourcePoint" />
            <mxPoint x="259" y="654" as="targetPoint" />
          </mxGeometry>
        </mxCell>
        <mxCell id="5Q0gCVu_fDA_tbG_rfQ1-26" value="" style="edgeStyle=none;html=1;endArrow=none;verticalAlign=bottom;rounded=0;exitX=0.75;exitY=0.1;exitDx=0;exitDy=0;exitPerimeter=0;entryX=0.757;entryY=0.886;entryDx=0;entryDy=0;entryPerimeter=0;" parent="1" source="5Q0gCVu_fDA_tbG_rfQ1-1" target="5Q0gCVu_fDA_tbG_rfQ1-6" edge="1">
          <mxGeometry width="160" relative="1" as="geometry">
            <mxPoint x="290" y="570" as="sourcePoint" />
            <mxPoint x="450" y="570" as="targetPoint" />
          </mxGeometry>
        </mxCell>
        <mxCell id="5Q0gCVu_fDA_tbG_rfQ1-27" value="" style="edgeStyle=none;html=1;endArrow=none;verticalAlign=bottom;rounded=0;" parent="1" target="5Q0gCVu_fDA_tbG_rfQ1-5" edge="1">
          <mxGeometry width="160" relative="1" as="geometry">
            <mxPoint x="405" y="510" as="sourcePoint" />
            <mxPoint x="450" y="570" as="targetPoint" />
          </mxGeometry>
        </mxCell>
        <mxCell id="5Q0gCVu_fDA_tbG_rfQ1-29" value="" style="edgeStyle=none;html=1;endArrow=none;verticalAlign=bottom;rounded=0;exitX=0.75;exitY=0.1;exitDx=0;exitDy=0;exitPerimeter=0;entryX=0.362;entryY=1.009;entryDx=0;entryDy=0;entryPerimeter=0;" parent="1" source="5Q0gCVu_fDA_tbG_rfQ1-1" target="5Q0gCVu_fDA_tbG_rfQ1-4" edge="1">
          <mxGeometry width="160" relative="1" as="geometry">
            <mxPoint x="290" y="560" as="sourcePoint" />
            <mxPoint x="450" y="560" as="targetPoint" />
          </mxGeometry>
        </mxCell>
        <mxCell id="5Q0gCVu_fDA_tbG_rfQ1-30" value="" style="edgeStyle=none;html=1;endArrow=none;verticalAlign=bottom;rounded=0;entryX=0;entryY=1;entryDx=0;entryDy=0;exitX=0.75;exitY=0.1;exitDx=0;exitDy=0;exitPerimeter=0;" parent="1" source="5Q0gCVu_fDA_tbG_rfQ1-1" target="5Q0gCVu_fDA_tbG_rfQ1-17" edge="1">
          <mxGeometry width="160" relative="1" as="geometry">
            <mxPoint x="290" y="560" as="sourcePoint" />
            <mxPoint x="450" y="560" as="targetPoint" />
          </mxGeometry>
        </mxCell>
        <mxCell id="5Q0gCVu_fDA_tbG_rfQ1-10" value="Pesquisar por Voluntariados" style="ellipse;whiteSpace=wrap;html=1;" parent="1" vertex="1">
          <mxGeometry x="274" y="20" width="140" height="70" as="geometry" />
        </mxCell>
        <mxCell id="5Q0gCVu_fDA_tbG_rfQ1-11" value="Pesquisar por Instituicoes" style="ellipse;whiteSpace=wrap;html=1;" parent="1" vertex="1">
          <mxGeometry x="460" y="30" width="140" height="70" as="geometry" />
        </mxCell>
        <mxCell id="5Q0gCVu_fDA_tbG_rfQ1-34" value="" style="edgeStyle=none;html=1;endArrow=none;verticalAlign=bottom;rounded=0;entryX=0.39;entryY=0.327;entryDx=0;entryDy=0;entryPerimeter=0;exitX=0.5;exitY=1;exitDx=0;exitDy=0;" parent="1" source="5Q0gCVu_fDA_tbG_rfQ1-10" target="5Q0gCVu_fDA_tbG_rfQ1-2" edge="1">
          <mxGeometry width="160" relative="1" as="geometry">
            <mxPoint x="330" y="110" as="sourcePoint" />
            <mxPoint x="450" y="130" as="targetPoint" />
          </mxGeometry>
        </mxCell>
        <mxCell id="5Q0gCVu_fDA_tbG_rfQ1-35" value="" style="edgeStyle=none;html=1;endArrow=none;verticalAlign=bottom;rounded=0;" parent="1" source="5Q0gCVu_fDA_tbG_rfQ1-11" edge="1">
          <mxGeometry width="160" relative="1" as="geometry">
            <mxPoint x="290" y="130" as="sourcePoint" />
            <mxPoint x="420" y="180" as="targetPoint" />
          </mxGeometry>
        </mxCell>
        <mxCell id="5Q0gCVu_fDA_tbG_rfQ1-36" value="" style="edgeStyle=none;html=1;endArrow=none;verticalAlign=bottom;rounded=0;exitX=0.5;exitY=0.5;exitDx=0;exitDy=0;exitPerimeter=0;" parent="1" source="5Q0gCVu_fDA_tbG_rfQ1-2" target="5Q0gCVu_fDA_tbG_rfQ1-13" edge="1">
          <mxGeometry width="160" relative="1" as="geometry">
            <mxPoint x="290" y="130" as="sourcePoint" />
            <mxPoint x="450" y="130" as="targetPoint" />
          </mxGeometry>
        </mxCell>
        <mxCell id="5Q0gCVu_fDA_tbG_rfQ1-37" value="" style="edgeStyle=none;html=1;endArrow=none;verticalAlign=bottom;rounded=0;entryX=0.233;entryY=0.818;entryDx=0;entryDy=0;entryPerimeter=0;" parent="1" source="5Q0gCVu_fDA_tbG_rfQ1-6" target="5Q0gCVu_fDA_tbG_rfQ1-2" edge="1">
          <mxGeometry width="160" relative="1" as="geometry">
            <mxPoint x="290" y="130" as="sourcePoint" />
            <mxPoint x="450" y="130" as="targetPoint" />
          </mxGeometry>
        </mxCell>
        <mxCell id="5Q0gCVu_fDA_tbG_rfQ1-38" value="" style="edgeStyle=none;html=1;endArrow=none;verticalAlign=bottom;rounded=0;exitX=0.719;exitY=0.079;exitDx=0;exitDy=0;exitPerimeter=0;entryX=0.508;entryY=0.778;entryDx=0;entryDy=0;entryPerimeter=0;" parent="1" source="5Q0gCVu_fDA_tbG_rfQ1-5" target="5Q0gCVu_fDA_tbG_rfQ1-2" edge="1">
          <mxGeometry width="160" relative="1" as="geometry">
            <mxPoint x="290" y="130" as="sourcePoint" />
            <mxPoint x="410" y="230" as="targetPoint" />
          </mxGeometry>
        </mxCell>
        <mxCell id="5Q0gCVu_fDA_tbG_rfQ1-39" value="" style="edgeStyle=none;html=1;endArrow=none;verticalAlign=bottom;rounded=0;entryX=0.622;entryY=0.029;entryDx=0;entryDy=0;entryPerimeter=0;exitX=0.508;exitY=0.759;exitDx=0;exitDy=0;exitPerimeter=0;" parent="1" source="5Q0gCVu_fDA_tbG_rfQ1-2" target="5Q0gCVu_fDA_tbG_rfQ1-4" edge="1">
          <mxGeometry width="160" relative="1" as="geometry">
            <mxPoint x="290" y="130" as="sourcePoint" />
            <mxPoint x="450" y="130" as="targetPoint" />
          </mxGeometry>
        </mxCell>
        <mxCell id="5Q0gCVu_fDA_tbG_rfQ1-40" value="" style="edgeStyle=none;html=1;endArrow=none;verticalAlign=bottom;rounded=0;entryX=0.5;entryY=0;entryDx=0;entryDy=0;exitX=0.508;exitY=0.759;exitDx=0;exitDy=0;exitPerimeter=0;" parent="1" source="5Q0gCVu_fDA_tbG_rfQ1-2" target="5Q0gCVu_fDA_tbG_rfQ1-17" edge="1">
          <mxGeometry width="160" relative="1" as="geometry">
            <mxPoint x="290" y="130" as="sourcePoint" />
            <mxPoint x="450" y="130" as="targetPoint" />
          </mxGeometry>
        </mxCell>
      </root>
    </mxGraphModel>
  </diagram>
</mxfile>
